<svg width="512" height="512" viewBox="0 0 512 512" fill="none" xmlns="http://www.w3.org/2000/svg">
  <title>Code and Conquer Favicon</title>
  <g id="favicon-content">
    <path d="M103.676 63.5442H175.972V135.84H103.676V367.177H175.972V439.472H103.676C77.0559 439.472 55.4756 417.892 55.4756 391.272V111.744C55.4756 85.1244 77.0559 63.5442 103.676 63.5442Z" fill="#4285F4"/>
    <path d="M383.239 63.5442H310.943V135.84H383.239V367.177H310.943V439.472H383.239C409.859 439.472 431.439 417.892 431.439 391.272V111.744C431.439 85.1244 409.859 63.5442 383.239 63.5442Z" fill="#34A853"/>
    <path d="M207.305 196.087H279.601V400.915C279.601 422.211 262.339 439.472 243.453 439.472C224.567 439.472 207.305 422.211 207.305 400.915V196.087Z" fill="#EA4335"/>
    <path d="M243.453 63.5442L279.601 123.797H207.305L243.453 63.5442Z" fill="#FBBC05"/>
  </g>
</svg>
