<svg width="512" height="512" viewBox="0 0 512 512" fill="none" xmlns="http://www.w3.org/2000/svg">

  <title>Code & Conquer - Google Style</title>

  

  <defs>

    <filter id="soft-shadow" x="-20%" y="-20%" width="140%" height="140%">

      <feDropShadow dx="0" dy="4" stdDeviation="6" flood-color="#000" flood-opacity="0.15"/>

    </filter>

  </defs>



  <g filter="url(#soft-shadow)">

    <path d="M140 100 H 200 V 160 H 140 V 352 H 200 V 412 H 140 C 117.909 412 100 394.091 100 372 V 140 C 100 117.909 117.909 100 140 100 Z" fill="#4285F4"/>



    <path d="M372 100 H 312 V 160 H 372 V 352 H 312 V 412 H 372 C 394.091 412 412 394.091 412 372 V 140 C 412 117.909 394.091 100 372 100 Z" fill="#34A853"/>



    <path d="M226 210 H 286 V 380 C 286 397.673 271.673 412 256 412 C 240.327 412 226 397.673 226 380 V 210 Z" fill="#EA4335"/>

    

    <path d="M256 100 L 286 150 H 226 L 256 100 Z" fill="#FBBC05"/>

    

    <rect x="220" y="270" width="72" height="12" rx="6" fill="white" transform="rotate(-45 256 256)" opacity="0.4"/>

  </g>

</svg>

